# xmcd
#
# Track frame offsets: 
#        150
#        12417
#        23373
#        35117
#        48883
#        62455
#        74034
#        86569
#        96501
#        105790
#        117546
#        130524
#        140724
#        156196
#        166296
#        177215
#        187915
#        198381
#        211171
#        224416
#        235682
#        248529
#        261339
#        269315
#
# Disc length: 3725 seconds
#
# Revision: 0
# Processed by: cddbd v1.5.2PL0 Copyright (c) Steve Scherf et al.
# Submitted via: ExactAudioCopy v1.0b3
#
DISCID=4e0e8b18
DTITLE=Various Artist - Westside Blues Rumble 1959-1969 (Titanic CD)
DYEAR=1900
DGENRE=Blues
TTITLE0=Oscar Boyd - She's My Baby
TTITLE1=Freddy Young - Someday Baby
TTITLE2=Lefty Guitar Bates - Ninety Days
TTITLE3=A.C. Reed - Mean Cop
TTITLE4=J.L. Smith - Come Dance With Me
TTITLE5=Freddy Young - Monkey Business
TTITLE6=Al Perkins and Band - Love Me Baby
TTITLE7=Sammy Hunt and The Jaguars - The Big Change
TTITLE8=A.C. Reed - Crying Blues
TTITLE9=Lefty Guitar Bates - Rock Alley
TTITLE10=Bobby Davis - Sweet Song
TTITLE11=A.C. Reed - Come On Home
TTITLE12=Chicago Piano - Miss Annie Lou
TTITLE13=Oscar Boyd - Twist With Ossie Lee
TTITLE14=Sammy Hunt and The Jaguars - One Of These Days
TTITLE15=A.C. Reed And His Band - My Baby Is Fine
TTITLE16=Bill Warren with The Jump Jackson Band - Riding In My Jaguar
TTITLE17=A.C. Reed - I'd Rather Fight Than Switch
TTITLE18=J.L. Smith - Tears Won't Help You Baby
TTITLE19=Ace St. Clair - Crazy Flu
TTITLE20=Al Perkins - She's Alright
TTITLE21=A.C. Reed - Talkin' 'Bout My Friends
TTITLE22=Young Guitar Red - Red Hot Red
TTITLE23=Earl Washington - The Cool Hunt
EXTD=
EXTT0=
EXTT1=
EXTT2=
EXTT3=
EXTT4=
EXTT5=
EXTT6=
EXTT7=
EXTT8=
EXTT9=
EXTT10=
EXTT11=
EXTT12=
EXTT13=
EXTT14=
EXTT15=
EXTT16=
EXTT17=
EXTT18=
EXTT19=
EXTT20=
EXTT21=
EXTT22=
EXTT23=
PLAYORDER=
